<svg xmlns="http://www.w3.org/2000/svg" width="168.5" height="32.625" viewBox="0 0 168.5 32.625">
  <g id="Group_60" data-name="Group 60" transform="translate(-406 -2184.032)">
    <text id="Click_here_" data-name="Click here…" transform="translate(407 2207.532)" fill="#27212e" stroke="#fff" stroke-width="1" font-size="20" font-family="Poppins-Bold, Poppins" font-weight="700"><tspan x="0" y="0">Click here…</tspan></text>
    <path id="_8541877_hand_point_right_icon" data-name="8541877_hand_point_right_icon" d="M43.5,75.525a3.831,3.831,0,0,1-3.806,3.723H31.21a4.179,4.179,0,0,1-.535,6.027,3.892,3.892,0,0,1-1.4,5.294c.762,4.175-1.865,6.055-6.168,6.055-.233,0-1.128-.017-1.359-.017-5.265.014-6.533-2.639-10.512-3.255a2.037,2.037,0,0,1-1.722-2.014V76.766h0a4.078,4.078,0,0,1,2.418-3.725c2.454-1.1,8.106-4.166,9.136-6.569A3.621,3.621,0,0,1,24.469,64a4.081,4.081,0,0,1,3.748,5.685,11.547,11.547,0,0,1-1.2,2.117H39.694A3.893,3.893,0,0,1,43.5,75.525Zm-35.344.03V91.867a2.039,2.039,0,0,1-2.039,2.039H2.039A2.039,2.039,0,0,1,0,91.867V75.555a2.039,2.039,0,0,1,2.039-2.039H6.117A2.039,2.039,0,0,1,8.156,75.555ZM5.777,89.828a1.7,1.7,0,1,0-1.7,1.7A1.7,1.7,0,0,0,5.777,89.828Z" transform="translate(531 2120.032)" fill="#6126a8"/>
  </g>
</svg>
