<svg xmlns="http://www.w3.org/2000/svg" width="62" height="52" viewBox="0 0 62 52">
  <g id="_11151213_about_faq_info_help_support_icon" data-name="11151213_about_faq_info_help_support_icon" transform="translate(-1 -6)">
    <path id="Path_17062" data-name="Path 17062" d="M63,30.963A24.963,24.963,0,0,0,38.037,6H25.963A24.963,24.963,0,0,0,1,30.963V56a2,2,0,0,0,2,2H38.037A24.963,24.963,0,0,0,63,33.037ZM30,22V48a2,2,0,0,0,4,0V22a2,2,0,0,0-4,0Zm2-8a2,2,0,1,1-2,2A2,2,0,0,1,32,14Z" fill="#6126a8" fill-rule="evenodd"/>
  </g>
</svg>
